<svg xmlns="http://www.w3.org/2000/svg" version="1.1" xmlns:xlink="http://www.w3.org/1999/xlink" xmlns:svgjs="http://svgjs.com/svgjs" width="512" height="512" x="0" y="0" viewBox="0 0 60 60" style="enable-background:new 0 0 512 512" xml:space="preserve" class=""><g transform="matrix(-1,-1.2246467991473532e-16,1.2246467991473532e-16,-1,60.04311609268188,59.98683166503908)"><path fill="#50a8ff" d="M21.47 39.5a.5.5 0 0 1-.251-.933L52.341 20.6a.5.5 0 0 1 .523.851L40.788 29.32l15.1-8.715a.5.5 0 0 1 .515.857l-5.905 3.71 6.973-4.026a.5.5 0 0 1 .519.854l-11.882 7.8 12.448-7.186a.5.5 0 0 1 .516.856l-3.766 2.377 3.414-1.971a.5.5 0 0 1 .521.853l-6.218 4.025 5.7-3.288a.5.5 0 0 1 .52.853L56.1 28.336l2.621-1.513a.5.5 0 0 1 .52.854l-.457.293a.5.5 0 0 1 .464.88l-2.905 1.937 2.378-1.373a.5.5 0 0 1 .534.844l-3.09 2.136 2.556-1.475a.5.5 0 0 1 .543.838L56.578 33.7l2.142-1.235a.5.5 0 0 1 .542.839l-.432.309a.508.508 0 0 1 .547.191.5.5 0 0 1-.079.668l-1.682 1.459 1.1-.637a.5.5 0 0 1 .636.749l-1 1.22a.484.484 0 0 1 .459.249.5.5 0 0 1-.182.682l-2.048 1.183a.5.5 0 0 1-.637-.749l.9-1.1L53.6 39.4a.5.5 0 0 1-.579-.81l1.682-1.459-3.933 2.274a.5.5 0 0 1-.542-.839l.319-.229-1.853 1.069a.5.5 0 0 1-.543-.838l2.679-1.939-4.816 2.78a.5.5 0 0 1-.535-.844l3.092-2.137-5.171 2.983a.5.5 0 0 1-.527-.848l2.911-1.942-4.836 2.792a.5.5 0 0 1-.52-.853l.356-.229-1.878 1.084a.5.5 0 0 1-.52-.852l3.149-2.031-5 2.885a.5.5 0 0 1-.521-.853l6.221-4.028-8.458 4.883a.5.5 0 0 1-.516-.856l3.763-2.375-5.6 3.233a.5.5 0 0 1-.525-.851l11.873-7.789-14.965 8.644a.5.5 0 0 1-.516-.857l5.909-3.713-7.917 4.572a.5.5 0 0 1-.523-.852L36.84 30.7l-15.121 8.73a.488.488 0 0 1-.249.07z" data-original="#50a8ff" class=""></path><path fill="#50a8ff" d="M17.439 45.433a.5.5 0 0 1-.35-.859l.667-.649-1.457.841a.5.5 0 0 1-.583-.806l1.323-1.184-1.839 1.06a.5.5 0 0 1-.512-.858l4.455-2.734-4.858 2.805a.5.5 0 0 1-.521-.853l16.571-10.7L12.7 41.679a.5.5 0 0 1-.515-.857l8.038-5.022-8.595 4.96a.5.5 0 0 1-.524-.851l14.48-9.472L10.053 39.4a.5.5 0 0 1-.513-.858l.488-.3-.791.457a.5.5 0 0 1-.514-.857l2.021-1.257-2.373 1.37a.5.5 0 0 1-.52-.853l7.194-4.6L7.258 37a.5.5 0 0 1-.528-.849l10.478-6.993L5.8 35.741a.5.5 0 0 1-.516-.855l.214-.135-.508.293a.5.5 0 0 1-.531-.846l8.81-6-9.716 5.61a.5.5 0 0 1-.519-.855l.467-.3-.771.447a.5.5 0 0 1-.535-.844l8.6-5.963-9.266 5.348A.5.5 0 0 1 1 30.792l6.414-4.261-6.114 3.53a.5.5 0 0 1-.529-.848l7.407-4.983L4.1 26.584a.5.5 0 0 1-.675-.169.5.5 0 0 1 .149-.681l4.962-3.294a.5.5 0 0 1-.134-.862l6.254-4.89a.5.5 0 0 1 .2-.65l2.453-1.417a.5.5 0 0 1 .558.826l-3.23 2.526 4.815-2.78a.5.5 0 0 1 .527.85l-2.534 1.683 2.838-1.639a.5.5 0 0 1 .529.848L13.4 21.92l7.319-4.22a.5.5 0 0 1 .527.849l-6.416 4.258 5.906-3.41a.5.5 0 0 1 .535.844l-8.6 5.964 9.717-5.605a.5.5 0 0 1 .519.854l-.462.294 1.991-1.148a.5.5 0 0 1 .531.845l-8.811 6L28.013 20.6a.5.5 0 0 1 .516.855l-.229.145 1.731-1a.5.5 0 0 1 .527.848l-10.474 6.99L33.666 20.6a.5.5 0 0 1 .52.853L27 26.048l9.438-5.448a.5.5 0 0 1 .514.857l-2.037 1.268L38.6 20.6a.5.5 0 0 1 .512.858l-.466.288 1.982-1.146a.5.5 0 0 1 .523.85l-14.482 9.472L44.554 20.6a.5.5 0 0 1 .514.856l-8.045 5.024 10.192-5.88a.5.5 0 0 1 .521.852l-16.567 10.7L51.178 20.6a.5.5 0 0 1 .511.858L21.464 40a.5.5 0 0 1-.162.308l-1.323 1.182.739-.425a.5.5 0 0 1 .6.791l-.708.689a.5.5 0 0 1 .392.912l-3.313 1.912a.489.489 0 0 1-.25.064z" data-original="#50a8ff" class=""></path><g fill="#262626"><path d="M53.492 39.443c.737 0 1.477.016 2.214 0a3.85 3.85 0 0 0 4.021-3.691c.123-3.936 0-7.894 0-11.833 0-.023-.014-.036-.017-.056s.016-.037.014-.058a3.431 3.431 0 0 0-3.489-3.252c-.474-.018-.952 0-1.426 0h-33.08c.034-2.155.285-4.672-2.084-5.687-1.924-.825-3.606.109-5.036 1.338l-10.952 9.42C2.588 26.544 1.028 27.536.5 28.9c-.807 2.105.577 3.47 2.007 4.7l11.158 9.605c1.454 1.252 2.772 2.594 4.9 2.137a3.873 3.873 0 0 0 3.123-3.077 16.529 16.529 0 0 0 .046-2.826h31.758zm-32.221-.891c-.254 0-1 .133-1 .526 0 1.767.516 5.555-2.254 5.473-1.248-.037-2.452-1.451-3.332-2.209l-9.909-8.53c-.868-.748-2.22-1.6-2.747-2.659-.956-1.926.442-3.2 1.741-4.318l9.73-8.372a32.679 32.679 0 0 1 3.1-2.655c1.749-1.15 3.579.659 3.669 2.407.049.949 0 1.913 0 2.864 0 .249.22.366.455.366h32.007c2.249 0 5.354-.463 5.542 2.724v10.563c0 1.567.037 3.635-2.059 3.82-.757.066-1.55 0-2.309 0z" fill="#262626" data-original="#262626" class=""></path><path d="M15.208 21.6a1.255 1.255 0 0 0-1.025.274L7.4 27.714l-.98.843c-.236.2-.144.449.139.52a1.257 1.257 0 0 0 1.023-.277l6.785-5.837.98-.843c.237-.201.144-.447-.139-.52z" fill="#262626" data-original="#262626" class=""></path></g></g></svg>