<svg xmlns="http://www.w3.org/2000/svg" version="1.1" xmlns:xlink="http://www.w3.org/1999/xlink" xmlns:svgjs="http://svgjs.com/svgjs" width="512" height="512" x="0" y="0" viewBox="0 0 512 512" style="enable-background:new 0 0 512 512" xml:space="preserve" class=""><g><path fill="#fdc069" d="M24 96h464v376H24z" data-original="#fdc069" class=""></path><path fill="#9fdc6e" d="M8 24h496v120H8zM8 472h496v32H8z" data-original="#9fdc6e" class=""></path><path fill="#f15a57" d="M112 136a72 72 0 0 1-72-72V32h144v32a72 72 0 0 1-72 72z" data-original="#f15a57"></path><ellipse cx="112" cy="28" fill="#fdc069" rx="72" ry="20" data-original="#fdc069" class=""></ellipse><path fill="#ffefed" d="M132 176h84v296H56V252a76 76 0 0 1 76-76z" data-original="#ffefed" class=""></path><path fill="#f15a57" d="M56 440h160v32H56z" data-original="#f15a57"></path><path fill="#ffefed" d="M248 176h208v240H248z" data-original="#ffefed" class=""></path><g fill="#ffd4cf"><path d="M399.494 280a65.573 65.573 0 0 0 .506-8c0-30.928-21.491-56-48-56s-48 25.072-48 56a65.573 65.573 0 0 0 .506 8zM344 416v-22a10 10 0 0 0-10-10h-38l-11.856-41.494A20 20 0 0 0 264.914 328H248v88zM88 264h96v48H88z" fill="#ffd4cf" data-original="#ffd4cf"></path></g><path d="M504 152a8 8 0 0 0 8-8V24a8 8 0 0 0-8-8h-64v16h56v104H146.856A80.53 80.53 0 0 0 176 111.949V112h28a36 36 0 0 0 0-72h-12v-8h232V16H185.988q-6.733-5.895-20.935-9.851C150.776 2.184 131.935 0 112 0S73.224 2.184 58.947 6.149Q44.763 10.09 38.012 16H8a8 8 0 0 0-8 8v120a8 8 0 0 0 8 8h8v120h16V152h448v312H224V176a8 8 0 0 0-8-8h-84a84.1 84.1 0 0 0-84 84v212H32V288H16v176H8a8 8 0 0 0-8 8v32a8 8 0 0 0 8 8h408v-16H16v-16h480v16h-64v16h72a8 8 0 0 0 8-8v-32a8 8 0 0 0-8-8h-8V152zM64 464v-16h32v-16H64V252a68.077 68.077 0 0 1 68-68h76v248h-96v16h96v16zM204 56a20 20 0 0 1 0 40h-18.68A79.558 79.558 0 0 0 192 64v-8zm-92-40c37.892 0 59.083 7.858 63.471 11.977-2.142 1.932-9.081 5.842-24.933 8.79l2.924 15.733A105.546 105.546 0 0 0 176 46.088V64a64 64 0 0 1-128 0V46.042a82.194 82.194 0 0 0 10.947 3.809C73.224 53.816 92.065 56 112 56c8.5 0 16.833-.4 24.782-1.176L135.218 38.9c-7.431.73-15.242 1.1-23.218 1.1-37.964 0-59.164-7.888-63.5-12 4.336-4.112 25.536-12 63.5-12zM16 32h16v32a80.1 80.1 0 0 0 45.144 72H16z" fill="#000000" data-original="#000000" class=""></path><path d="M280 64a8.009 8.009 0 0 1 8 8h16a24 24 0 0 0-48 0v24a24 24 0 0 0 48 0h-16a8 8 0 0 1-16 0V72a8.009 8.009 0 0 1 8-8zM368 120V72a24 24 0 0 0-48 0v48h16v-16h16v16zm-32-32V72a8 8 0 0 1 16 0v16zM424 64V48h-32a8 8 0 0 0-8 8v64h16V96h16V80h-16V64zM458 120h22v-16h-22a2 2 0 0 1-2-2v-6h16V80h-16V66a2 2 0 0 1 2-2h22V48h-22a18.021 18.021 0 0 0-18 18v36a18.021 18.021 0 0 0 18 18zM456 424a8 8 0 0 0 8-8V176a8 8 0 0 0-8-8H248a8 8 0 0 0-8 8v240a8 8 0 0 0 8 8zm-200-16v-72h8.914a12.05 12.05 0 0 1 11.538 8.7l11.856 41.5A8 8 0 0 0 296 392h38a2 2 0 0 1 2 2v14zm144 0v-48h48v48zm-48-184c22.056 0 40 21.533 40 48h-80c0-26.467 17.944-48 40-48zm-8-40v24.651c-27.1 4.45-48 31.163-48 63.349a73.763 73.763 0 0 0 .566 8.977 8 8 0 0 0 7.94 7.023h94.988a8 8 0 0 0 7.94-7.023A73.763 73.763 0 0 0 408 272c0-32.186-20.9-58.9-48-63.349V184h88v160H320v16h64v48h-32v-14a18.021 18.021 0 0 0-18-18h-31.966l-10.2-35.692A28.119 28.119 0 0 0 264.914 320H256V184zM176 344h16v40h-16zM192 312v-48a8 8 0 0 0-8-8h-4.687l-37.656-37.657a8 8 0 0 0-11.314 0L92.687 256H88a8 8 0 0 0-8 8v48a8 8 0 0 0 8 8h96a8 8 0 0 0 8-8zm-56-76.687L156.687 256h-41.374zM176 304H96v-32h80z" fill="#000000" data-original="#000000" class=""></path></g></svg>