<svg xmlns="http://www.w3.org/2000/svg" version="1.1" xmlns:xlink="http://www.w3.org/1999/xlink" xmlns:svgjs="http://svgjs.com/svgjs" width="512" height="512" x="0" y="0" viewBox="0 0 64 64" style="enable-background:new 0 0 512 512" xml:space="preserve"><g><path fill="#6ebe5a" d="M7 2h50v28H7z" data-original="#6ebe5a"></path><path fill="#845a30" d="M7 26h50v4H7z" data-original="#845a30"></path><path fill="#bcc1c4" d="M1 38h28v4H1z" data-original="#bcc1c4"></path><rect width="16" height="9" x="7" y="35" fill="#db3a3a" rx="2" data-original="#db3a3a"></rect><path fill="#db3a3a" d="M7 51h16v4H7z" data-original="#db3a3a"></path><path fill="#bcc1c4" d="M35 38h28v4H35z" data-original="#bcc1c4"></path><rect width="16" height="9" x="41" y="35" fill="#db3a3a" rx="2" data-original="#db3a3a"></rect><path fill="#db3a3a" d="M41 51h16v4H41z" data-original="#db3a3a"></path><path fill="#ffdc32" d="M43 22h8v4h-8z" data-original="#ffdc32"></path><path d="M58 1H6v30h52zm-2 2v22h-4v-4H42v4H8V3zm-6 22h-6v-2h6zM8 29v-2h48v2zM64 37h-6a3.003 3.003 0 0 0-3-3H43a3.003 3.003 0 0 0-3 3h-6v6h2v16h2V43h2.184A2.995 2.995 0 0 0 43 45h1v5h-4v6h2v7h2v-7h10v7h2v-7h2v-6h-4v-5h1a2.995 2.995 0 0 0 2.816-2H60v16h2V43h2zm-28 2h4v2h-4zm20 15H42v-2h14zm-4-4h-6v-5h6zm4-8a1 1 0 0 1-1 1H43a1 1 0 0 1-1-1v-5a1 1 0 0 1 1-1h12a1 1 0 0 1 1 1zm6-1h-4v-2h4zM21 34H9a3.003 3.003 0 0 0-3 3H0v6h2v16h2V43h2.184A2.995 2.995 0 0 0 9 45h1v5H6v6h2v7h2v-7h10v7h2v-7h2v-6h-4v-5h1a2.995 2.995 0 0 0 2.816-2H26v16h2V43h2v-6h-6a3.003 3.003 0 0 0-3-3zM2 39h4v2H2zm20 15H8v-2h14zm-4-4h-6v-5h6zm4-8a1 1 0 0 1-1 1H9a1 1 0 0 1-1-1v-5a1 1 0 0 1 1-1h12a1 1 0 0 1 1 1zm6-3v2h-4v-2z" fill="#000000" data-original="#000000"></path></g></svg>