<svg xmlns="http://www.w3.org/2000/svg" version="1.1" xmlns:xlink="http://www.w3.org/1999/xlink" xmlns:svgjs="http://svgjs.com/svgjs" width="512" height="512" x="0" y="0" viewBox="0 0 128 128" style="enable-background:new 0 0 512 512" xml:space="preserve" class=""><g><g fill="#2568ef"><path d="M64 19a4.161 4.161 0 0 0-4.16 4.16v47.458L43.931 54.709a4.16 4.16 0 1 0-5.883 5.884L61.058 83.6a4.162 4.162 0 0 0 5.884 0l23.01-23.011a4.16 4.16 0 1 0-5.883-5.884L68.16 70.618V23.16A4.161 4.161 0 0 0 64 19z" fill="#ef2525" data-original="#2568ef" class=""></path><path d="M23.16 74.005a4.16 4.16 0 0 0-4.16 4.16v13.708A17.146 17.146 0 0 0 36.127 109h55.746A17.146 17.146 0 0 0 109 91.873V78.165a4.16 4.16 0 1 0-8.32 0v13.708a8.817 8.817 0 0 1-8.807 8.807H36.127a8.817 8.817 0 0 1-8.807-8.807V78.165a4.159 4.159 0 0 0-4.16-4.16z" fill="#ef2525" data-original="#2568ef" class=""></path></g></g></svg>