<svg xmlns="http://www.w3.org/2000/svg" version="1.1" xmlns:xlink="http://www.w3.org/1999/xlink" xmlns:svgjs="http://svgjs.com/svgjs" width="512" height="512" x="0" y="0" viewBox="0 0 64 64" style="enable-background:new 0 0 512 512" xml:space="preserve" class=""><g><path d="M61 6H49.13l-3.4-3.68A.99.99 0 0 0 45 2H15a1 1 0 0 0-1 1v14.75a17 17 0 0 0 0 32.5V57a1 1 0 0 0 1 1h9v3a1 1 0 0 0 1 1h36a1 1 0 0 0 1-1V7a1 1 0 0 0-1-1zm-15-.44L54.72 15H46zM4 34a15 15 0 1 1 15 15A15.018 15.018 0 0 1 4 34zm12 22v-5.28a17.432 17.432 0 0 0 3 .28 16.861 16.861 0 0 0 7.94-1.98L33.93 56zm10 4v-2h9.93l2.01 2zm17.62-1.38a3.043 3.043 0 0 1-4.23 0L28.7 47.94a17.082 17.082 0 0 0 4.24-4.24l10.68 10.69a2.958 2.958 0 0 1 0 4.23zm-9.6-16.68A16.982 16.982 0 0 0 19 17a17.432 17.432 0 0 0-3 .28V4h28v12a1 1 0 0 0 1 1h11v39h-9.54a4.994 4.994 0 0 0-1.42-3.03zM60 60H45.07a4.919 4.919 0 0 0 1.18-2H57a1 1 0 0 0 1-1V16a.977.977 0 0 0-.27-.68L50.98 8H60z" fill="#fffefe" data-original="#000000" class=""></path><path d="M20 7h6v2h-6zM29 7h12v2H29zM20 12h21v2H20zM36 20h18v2H36zM36 25h18v2H36zM38 30h16v2H38zM38 35h4v2h-4zM44 35h10v2H44zM32 34a13 13 0 1 0-13 13 13.015 13.015 0 0 0 13-13zM8 34a11 11 0 1 1 11 11A11.013 11.013 0 0 1 8 34z" fill="#fffefe" data-original="#000000" class=""></path></g></svg>