<svg xmlns="http://www.w3.org/2000/svg" version="1.1" xmlns:xlink="http://www.w3.org/1999/xlink" xmlns:svgjs="http://svgjs.com/svgjs" width="512" height="512" x="0" y="0" viewBox="0 0 682.667 682.667" style="enable-background:new 0 0 512 512" xml:space="preserve" class=""><g><defs><clipPath id="a" clipPathUnits="userSpaceOnUse"><path d="M0 512h512V0H0Z" fill="#000000" data-original="#000000"></path></clipPath></defs><g clip-path="url(#a)" transform="matrix(1.33333 0 0 -1.33333 0 682.667)"><path d="M0 0c0-7.73-6.27-14-14-14h-469c-3.86 0-7.36 1.57-9.9 4.1-2.53 2.53-4.1 6.03-4.1 9.9 0 7.74 6.27 14.01 14 14.01h469A14 14 0 0 0 0 0" style="fill-opacity:1;fill-rule:nonzero;stroke:none" transform="translate(504.5 47.772)" fill="#d77d41" data-original="#d77d41"></path><path d="M0 0a14 14 0 0 0 4.1-9.91c0-7.73-6.27-14-14-14h-27c7.73 0 14 6.27 14 14a14 14 0 0 1-14 14.01h27C-6.04 4.1-2.54 2.53 0 0" style="fill-opacity:1;fill-rule:nonzero;stroke:none" transform="translate(500.4 57.682)" fill="#b5612a" data-original="#b5612a"></path><path d="m0 0-15.77 20.09 4.73 18.34-16.26 56.58a5.165 5.165 0 0 1-6.4 3.54l-26.48-7.61L-137 68.87a5.167 5.167 0 0 1-3.55-6.4L-124.3 5.9l15.25-18.29-4.2-20.15 65.274-227.18 62.966 7.76 50.282 24.776z" style="fill-opacity:1;fill-rule:nonzero;stroke:none" transform="translate(390.668 378.691)" fill="#d4e16c" data-original="#d4e16c"></path><path d="m0 0-21.034-6.043-91.779 317.187c-1.56 5.409-7.219 8.54-12.64 6.98l26.48 7.609c2.75.79 5.611-.79 6.401-3.54l16.259-56.58-4.729-18.34 15.77-20.089z" style="fill-opacity:1;fill-rule:nonzero;stroke:none" transform="translate(455.94 151.508)" fill="#a4ce39" data-original="#a4ce39"></path><path d="m0 0-21.46-6.17-91.79-26.37L-124.3 5.9l91.72 26.34 21.54 6.19z" style="fill-opacity:1;fill-rule:nonzero;stroke:none" transform="translate(390.668 378.691)" fill="#fdeda5" data-original="#fdeda5" class=""></path><path d="m0 0-14.877 51.777-113.248-32.537 9.775-34.03 6.53-22.72L-3.55-6.41C-.8-5.62.78-2.75 0 0" style="fill-opacity:1;fill-rule:nonzero;stroke:none" transform="translate(470.817 99.731)" fill="#56788b" data-original="#56788b"></path><path d="m0 0-108.27-31.1-6.53 22.72 71.68 21.67c11.21 3.39 17.61 15.17 14.36 26.42l-3.602 12.434 21.034 6.043L3.55 6.41C4.33 3.66 2.75.79 0 0" style="fill-opacity:1;fill-rule:nonzero;stroke:none" transform="translate(467.268 93.321)" fill="#415e6f" data-original="#415e6f" class=""></path><path d="m0 0-11.12 38.41 21.54 6.19L21.46 6.17Z" style="fill-opacity:1;fill-rule:nonzero;stroke:none" transform="translate(369.207 372.521)" fill="#fbdf63" data-original="#fbdf63" class=""></path><path d="M0 0v-353.97h-97.83V5.48h92.35C-2.45 5.48 0 3.03 0 0" style="fill-opacity:1;fill-rule:nonzero;stroke:none" transform="translate(255.286 415.753)" fill="#f9d11f" data-original="#f9d11f" class=""></path><path d="M0 0v-353.97h-21V0c0 3.03-2.45 5.48-5.48 5.48h21C-2.45 5.48 0 3.03 0 0" style="fill-opacity:1;fill-rule:nonzero;stroke:none" transform="translate(255.286 415.753)" fill="#ffa402" data-original="#ffa402" class=""></path><path d="M255.286 61.783h-97.83v59.51h97.83z" style="fill-opacity:1;fill-rule:nonzero;stroke:none" fill="#56788b" data-original="#56788b"></path><path d="M0 0h21v-59.51H-96.83v18.99h76.85C-8.95-40.52 0-31.57 0-20.54z" style="fill-opacity:1;fill-rule:nonzero;stroke:none" transform="translate(234.286 121.293)" fill="#415e6f" data-original="#415e6f" class=""></path><path d="M255.286 317.644h-97.83v40h97.83z" style="fill-opacity:1;fill-rule:nonzero;stroke:none" fill="#fdeda5" data-original="#fdeda5" class=""></path><path d="M255.286 317.644h-21v40h21z" style="fill-opacity:1;fill-rule:nonzero;stroke:none" fill="#fbdf63" data-original="#fbdf63" class=""></path><path d="M0 0v-58.35l-10-20 10-20V-344.7l-117.83 10v236.35l10 20-10 20V0c0 2.89 2.34 5.24 5.23 5.24H-5.24C-2.35 5.24 0 2.89 0 0" style="fill-opacity:1;fill-rule:nonzero;stroke:none" transform="translate(157.457 455.993)" fill="#ff6b81" data-original="#ff6b81" class=""></path><path d="M0 0v-58.35l-10-20 10-20v-295.86h-117.83v18.99h76.85c11.03 0 19.98 8.95 19.98 19.98V0c0 2.89-2.35 5.24-5.24 5.24h21C-2.35 5.24 0 2.89 0 0" style="fill-opacity:1;fill-rule:nonzero;stroke:none" transform="translate(157.457 455.993)" fill="#ed2061" data-original="#ed2061" class=""></path><path d="M157.457 61.783H39.627v59.51h117.83z" style="fill-opacity:1;fill-rule:nonzero;stroke:none" fill="#56788b" data-original="#56788b"></path><path d="M157.457 357.644H39.627v40h117.83z" style="fill-opacity:1;fill-rule:nonzero;stroke:none" fill="#fdeda5" data-original="#fdeda5" class=""></path><path d="M157.457 357.644h-21v40h21z" style="fill-opacity:1;fill-rule:nonzero;stroke:none" fill="#fbdf63" data-original="#fbdf63" class=""></path><path d="M0 0h21v-59.51H-96.83v18.99h76.85C-8.95-40.52 0-31.57 0-20.54z" style="fill-opacity:1;fill-rule:nonzero;stroke:none" transform="translate(136.457 121.293)" fill="#415e6f" data-original="#415e6f" class=""></path><path d="M0 0h389.458c7.732 0 14 6.27 14 14.004v0c0 7.734-6.268 14.004-14 14.004h-469c-7.732 0-14-6.27-14-14.004v0c0-7.734 6.268-14.004 14-14.004h44.456" style="stroke-width:15;stroke-linecap:round;stroke-linejoin:miter;stroke-miterlimit:10;stroke-dasharray:none;stroke-opacity:1" transform="translate(101.042 33.768)" fill="none" stroke="#000000" stroke-width="15" stroke-linecap="round" stroke-linejoin="miter" stroke-miterlimit="10" stroke-dasharray="none" stroke-opacity="" data-original="#000000" class=""></path><path d="M0 0v260.518h-117.829v-399.451H0v104.464" style="stroke-width:15;stroke-linecap:round;stroke-linejoin:round;stroke-miterlimit:10;stroke-dasharray:none;stroke-opacity:1" transform="translate(157.457 200.709)" fill="none" stroke="#000000" stroke-width="15" stroke-linecap="round" stroke-linejoin="round" stroke-miterlimit="10" stroke-dasharray="none" stroke-opacity="" data-original="#000000" class=""></path><path d="M39.627 357.644h117.829v40H39.627Z" style="stroke-width:15;stroke-linecap:round;stroke-linejoin:round;stroke-miterlimit:10;stroke-dasharray:none;stroke-opacity:1" fill="none" stroke="#000000" stroke-width="15" stroke-linecap="round" stroke-linejoin="round" stroke-miterlimit="10" stroke-dasharray="none" stroke-opacity="" data-original="#000000" class=""></path><path d="M0 0h-117.829" style="stroke-width:15;stroke-linecap:round;stroke-linejoin:round;stroke-miterlimit:10;stroke-dasharray:none;stroke-opacity:1" transform="translate(157.457 121.285)" fill="none" stroke="#000000" stroke-width="15" stroke-linecap="round" stroke-linejoin="round" stroke-miterlimit="10" stroke-dasharray="none" stroke-opacity="" data-original="#000000" class=""></path><path d="M0 0v-146.312" style="stroke-width:15;stroke-linecap:round;stroke-linejoin:round;stroke-miterlimit:10;stroke-dasharray:none;stroke-opacity:1" transform="translate(81.187 312.529)" fill="none" stroke="#000000" stroke-width="15" stroke-linecap="round" stroke-linejoin="round" stroke-miterlimit="10" stroke-dasharray="none" stroke-opacity="" data-original="#000000" class=""></path><path d="M0 0v-100" style="stroke-width:15;stroke-linecap:round;stroke-linejoin:round;stroke-miterlimit:10;stroke-dasharray:none;stroke-opacity:1" transform="translate(115.897 289.373)" fill="none" stroke="#000000" stroke-width="15" stroke-linecap="round" stroke-linejoin="round" stroke-miterlimit="10" stroke-dasharray="none" stroke-opacity="" data-original="#000000" class=""></path><path d="m0 0-36.002 125.31-113.248-32.538 110.302-383.919L74.3-258.61 9.175-31.934" style="stroke-width:15;stroke-linecap:round;stroke-linejoin:round;stroke-miterlimit:10;stroke-dasharray:none;stroke-opacity:1" transform="translate(398.072 352.923)" fill="none" stroke="#000000" stroke-width="15" stroke-linecap="round" stroke-linejoin="round" stroke-miterlimit="10" stroke-dasharray="none" stroke-opacity="" data-original="#000000" class=""></path><path d="m0 0 113.248 32.537-11.046 38.444-113.247-32.536Z" style="stroke-width:15;stroke-linecap:round;stroke-linejoin:round;stroke-miterlimit:10;stroke-dasharray:none;stroke-opacity:1" transform="translate(277.425 346.14)" fill="none" stroke="#000000" stroke-width="15" stroke-linecap="round" stroke-linejoin="round" stroke-miterlimit="10" stroke-dasharray="none" stroke-opacity="" data-original="#000000" class=""></path><path d="m0 0-113.248-32.537" style="stroke-width:15;stroke-linecap:round;stroke-linejoin:round;stroke-miterlimit:10;stroke-dasharray:none;stroke-opacity:1" transform="translate(455.94 151.508)" fill="none" stroke="#000000" stroke-width="15" stroke-linecap="round" stroke-linejoin="round" stroke-miterlimit="10" stroke-dasharray="none" stroke-opacity="" data-original="#000000" class=""></path><path d="m0 0 40.401-140.622" style="stroke-width:15;stroke-linecap:round;stroke-linejoin:round;stroke-miterlimit:10;stroke-dasharray:none;stroke-opacity:1" transform="translate(329.827 314.255)" fill="none" stroke="#000000" stroke-width="15" stroke-linecap="round" stroke-linejoin="round" stroke-miterlimit="10" stroke-dasharray="none" stroke-opacity="" data-original="#000000" class=""></path><path d="m0 0 27.614-96.112" style="stroke-width:15;stroke-linecap:round;stroke-linejoin:round;stroke-miterlimit:10;stroke-dasharray:none;stroke-opacity:1" transform="translate(369.581 301.584)" fill="none" stroke="#000000" stroke-width="15" stroke-linecap="round" stroke-linejoin="round" stroke-miterlimit="10" stroke-dasharray="none" stroke-opacity="" data-original="#000000" class=""></path><path d="M0 0v157.476h-97.829" style="stroke-width:15;stroke-linecap:round;stroke-linejoin:round;stroke-miterlimit:10;stroke-dasharray:none;stroke-opacity:1" transform="translate(255.286 263.751)" fill="none" stroke="#000000" stroke-width="15" stroke-linecap="round" stroke-linejoin="round" stroke-miterlimit="10" stroke-dasharray="none" stroke-opacity="" data-original="#000000" class=""></path><path d="M0 0h97.829v167.752" style="stroke-width:15;stroke-linecap:round;stroke-linejoin:round;stroke-miterlimit:10;stroke-dasharray:none;stroke-opacity:1" transform="translate(157.457 61.776)" fill="none" stroke="#000000" stroke-width="15" stroke-linecap="round" stroke-linejoin="round" stroke-miterlimit="10" stroke-dasharray="none" stroke-opacity="" data-original="#000000" class=""></path><path d="M157.457 317.644h97.829v40h-97.829z" style="stroke-width:15;stroke-linecap:round;stroke-linejoin:round;stroke-miterlimit:10;stroke-dasharray:none;stroke-opacity:1" fill="none" stroke="#000000" stroke-width="15" stroke-linecap="round" stroke-linejoin="round" stroke-miterlimit="10" stroke-dasharray="none" stroke-opacity="" data-original="#000000" class=""></path><path d="M0 0h-97.829" style="stroke-width:15;stroke-linecap:round;stroke-linejoin:round;stroke-miterlimit:10;stroke-dasharray:none;stroke-opacity:1" transform="translate(255.286 121.285)" fill="none" stroke="#000000" stroke-width="15" stroke-linecap="round" stroke-linejoin="round" stroke-miterlimit="10" stroke-dasharray="none" stroke-opacity="" data-original="#000000" class=""></path><path d="M0 0v-106.312" style="stroke-width:15;stroke-linecap:round;stroke-linejoin:round;stroke-miterlimit:10;stroke-dasharray:none;stroke-opacity:1" transform="translate(206.733 272.529)" fill="none" stroke="#000000" stroke-width="15" stroke-linecap="round" stroke-linejoin="round" stroke-miterlimit="10" stroke-dasharray="none" stroke-opacity="" data-original="#000000" class=""></path></g></g></svg>