<svg xmlns="http://www.w3.org/2000/svg" version="1.1" xmlns:xlink="http://www.w3.org/1999/xlink" xmlns:svgjs="http://svgjs.com/svgjs" width="512" height="512" x="0" y="0" viewBox="0 0 64 64" style="enable-background:new 0 0 512 512" xml:space="preserve" class=""><g><g data-name="Reseach-Smartphone-Search-Seo-Search Engine"><path d="M46 2H18a6.006 6.006 0 0 0-6 6v22h2V8a4 4 0 0 1 4-4h28a4 4 0 0 1 4 4v48a4 4 0 0 1-4 4H18a4 4 0 0 1-4-4v-6h-2v6a6.006 6.006 0 0 0 6 6h28a6.006 6.006 0 0 0 6-6V8a6.006 6.006 0 0 0-6-6z" fill="#ffffff" data-original="#000000" class=""></path><path d="M30 52a3 3 0 0 0 0 6h4a3 3 0 0 0 0-6zm5 3a1 1 0 0 1-1 1h-4a1 1 0 0 1 0-2h4a1 1 0 0 1 1 1zM25 6h2v2h-2zM29 6h6v2h-6zM18 24a11.988 11.988 0 0 0 19.741 9.155l7.109 7.108 1.414-1.414-7.109-7.108A12 12 0 1 0 18 24zm12-10a10 10 0 1 1-10 10 10.011 10.011 0 0 1 10-10z" fill="#ffffff" data-original="#000000" class=""></path><path d="M36 24h2a8.009 8.009 0 0 0-8-8v2a6.006 6.006 0 0 1 6 6zM21 40a8 8 0 1 0-8 8 8.009 8.009 0 0 0 8-8zM7 40a6 6 0 1 1 6 6 6.006 6.006 0 0 1-6-6zM25 46h12v2H25zM39 46h4v2h-4zM25 42h16v2H25z" fill="#ffffff" data-original="#000000" class=""></path><path d="M15 40h2a4 4 0 0 0-4-4v2a2 2 0 0 1 2 2z" fill="#ffffff" data-original="#000000" class=""></path></g></g></svg>