<svg xmlns="http://www.w3.org/2000/svg" version="1.1" xmlns:xlink="http://www.w3.org/1999/xlink" xmlns:svgjs="http://svgjs.com/svgjs" width="512" height="512" x="0" y="0" viewBox="0 0 480.011 480.011" style="enable-background:new 0 0 512 512" xml:space="preserve" class=""><g><path d="M275.211 53.456c-60.774-55.287-153.626-55.287-214.4 0-65.44 58.874-70.764 159.649-11.891 225.09l.571.631c59.028 65.633 160.087 70.987 225.72 11.959s70.987-160.087 11.959-225.72a159.697 159.697 0 0 0-11.959-11.96z" style="" fill="#f15a24" data-original="#f15a24" class=""></path><path d="M187.579 307.976c-17.665-77.542 30.875-154.723 108.418-172.388 77.542-17.665 154.723 30.875 172.388 108.418 17.665 77.542-30.875 154.723-108.418 172.388a144.059 144.059 0 0 1-15.956 2.702" style="" fill="#e6e6e6" data-original="#e6e6e6"></path><path d="M471.003 259.536a143.204 143.204 0 0 0-23.272-63.56 145.06 145.06 0 0 0-12.6-16h-11.12a8 8 0 0 0-7.688 5.808l-15.048 52.648-24.464 12.488-40.8-27.2v-31.576l44.592-31.2a8 8 0 0 0 3.128-8.664l-2.76-10.096a144.451 144.451 0 0 0-105.2-.264l-3.344 9.912a8 8 0 0 0 2.992 9.112l44.592 31.2v31.552l-40.936 27.288-32.912-13.168-14.72-36.8a8.056 8.056 0 0 0-3.856-4.192l-14.552-7.248a142.737 142.737 0 0 0-28.6 78.016c-.16 2.8-.424 5.6-.424 8.416 0 3.056.12 6.088.304 9.096l12.12 6.064a8 8 0 0 0 9.232-1.504l36.272-36.264 31.464 12.584 14.92 52.216a8 8 0 0 0 7.688 5.776h60.688l17.6 17.6-21.424 42.848a8 8 0 0 0 .936 8.608l16.6 20.544a142.682 142.682 0 0 0 82.4-65.936l-5.6-11.24a8 8 0 0 0-7.2-4.424h-52.688l-18.328-18.328 13.6-47.72 24.848-12.696 44.096 29.4a8.002 8.002 0 0 0 8 .504l12.376-6.192c0-.328.048-.64.048-.968a144.76 144.76 0 0 0-.96-16.44z" style="" fill="#1a1a1a" data-original="#1a1a1a"></path><path d="m361.803 382.952-22.816-20.92c-78.634-72.074-199.318-72.074-277.952 0l-22.816 20.92c-6.512 5.973-6.949 16.094-.976 22.606a16.062 16.062 0 0 0 2.192 1.986l25.736 19.296a205.6 205.6 0 0 0 123.392 41.136h22.896a205.6 205.6 0 0 0 123.392-41.136l25.736-19.296c7.07-5.301 8.503-15.33 3.202-22.4a16.062 16.062 0 0 0-1.986-2.192z" style="" fill="#ff902a" data-original="#ff902a"></path><path d="M479.483 265.576c-5.486-79.265-71.075-140.943-150.528-141.552C302.437 35.134 208.88-15.43 119.99 11.088S-19.464 131.163 7.053 220.053a167.962 167.962 0 0 0 92.158 105.211 213.937 213.937 0 0 0-43.576 30.872l-22.824 20.92c-9.772 8.956-10.434 24.137-1.478 33.909a23.985 23.985 0 0 0 3.286 2.979l25.728 19.296a214.99 214.99 0 0 0 128.216 42.736h22.896a214.996 214.996 0 0 0 128.2-42.736l9.056-6.792c75.275-10.194 131.394-74.51 131.296-150.472 0-2.096-.232-4.128-.312-6.2a7.88 7.88 0 0 0-.216-4.2zM447.211 336.4a8 8 0 0 0-7.2-4.424h-52.688l-18.328-18.328 14.104-49.368 24.2-11.16 44.272 29.512a8.002 8.002 0 0 0 8 .504l4.184-2.096a135.556 135.556 0 0 1-15.288 58l-1.256-2.64zm-87.328 33.976-15.496-14.24a213.934 213.934 0 0 0-46.032-32.16h58.344l17.6 17.6-14.416 28.8zM55.163 70.432l101.536 101.544-25.336 25.336a167.48 167.48 0 0 0-101.096-43.2l-12.888-.92a151.045 151.045 0 0 1 37.784-82.76zm94.992-36.2a167.443 167.443 0 0 0 43.256 101.032l-25.4 25.4L66.475 59.12a151.033 151.033 0 0 1 82.76-37.768l.92 12.88zm130.8 36.144a151.809 151.809 0 0 1 31.552 54.4 150.94 150.94 0 0 0-72.904 27.816 152.353 152.353 0 0 1-23.536-17.352l64.888-64.864zm83.48 74.744 2.08 6.168-38.504 26.92-38.504-26.96 2.08-6.168a132.526 132.526 0 0 1 72.848 0v.04zm1.448 117.76c.064.168.048.344.128.512.147.277.313.545.496.8l-12.528 43.784h-51.936l-12.736-44.584 38.704-25.816 37.872 25.304zm-86.808-11.896-32.912-13.168-14.72-36.8a8.003 8.003 0 0 0-3.856-4.192l-7.2-3.616a136.611 136.611 0 0 1 52.016-41.232 8 8 0 0 0 3.016 8.928l44.592 31.24v31.552l-40.936 27.288zm-67.8-44.432 6.4 3.2 12.912 32.272-32.176 32.216-6.176-3.088a134.95 134.95 0 0 1 19.04-64.6zm15.12-43.288a152.783 152.783 0 0 0-23.48 26.576 7.992 7.992 0 0 0-2.064 2.56 8.172 8.172 0 0 0-.232.872l-21.296-21.296 25.416-25.416a168.708 168.708 0 0 0 21.672 16.704h-.016zm-58.4 20 24.392 24.392a150.746 150.746 0 0 0-15.848 57.6 166.581 166.581 0 0 0-33.872-56.632l25.328-25.36zm26.344 116.8c-.64-3.584-1.248-7.2-1.6-10.816l3.688 1.848a8 8 0 0 0 9.232-1.504l36.272-36.264 31.464 12.584 14.92 52.216c.145.405.328.796.544 1.168a213.324 213.324 0 0 0-88.848-19.32c-1.888 0-3.768.08-5.656.128l-.016-.04zm243.408-104.088a135.023 135.023 0 0 1 25.6 67.376l-6.784 3.392-39.28-26.184 12.76-44.584h7.704zm-13.504-16h-.232a8 8 0 0 0-7.688 5.808l-14.992 52.464-25.704 11.856-39.616-26.408v-31.552l44.592-31.2a8 8 0 0 0 3.016-8.928 136.45 136.45 0 0 1 40.624 27.96zM269.547 59.12l-64.8 64.8a151.535 151.535 0 0 1-38.632-90.824l-.928-12.912a151.416 151.416 0 0 1 104.36 38.936zM16.219 169.152l12.912.92a151.632 151.632 0 0 1 90.88 38.568l-64.872 64.88a151.448 151.448 0 0 1-38.92-104.368zm50.144 115.792 65-64.968a151.314 151.314 0 0 1 37.536 82.32 212.788 212.788 0 0 0-49.736 13.6 152.398 152.398 0 0 1-52.8-30.952zm263.688 135.504a198.892 198.892 0 0 1-118.592 39.528h-22.896a198.895 198.895 0 0 1-118.592-39.528l-25.736-19.304a8 8 0 0 1-.608-12.296l22.784-20.92a197.368 197.368 0 0 1 55.2-35.536 7.94 7.94 0 0 0 3.344-1.48c70.836-29.257 152.207-14.822 208.656 37.016l22.816 20.92a8 8 0 0 1-.608 12.296l-25.768 19.304zm42.816-16.144a22.817 22.817 0 0 0-1.272-21.6l17.36-34.728h46.112l3.56 7.12a135.454 135.454 0 0 1-65.76 49.208z" fill="#000000" data-original="#000000" class=""></path><path d="M272.011 379.976h-8v-8a8 8 0 0 0-16 0v8h-16v-8a8 8 0 0 0-16 0v8h-16v-8a8 8 0 0 0-16 0v8h-16v-8a8 8 0 0 0-16 0v8h-16v-8a8 8 0 0 0-16 0v8h-8a8 8 0 0 0 0 16h8v8a8 8 0 0 0 16 0v-8h16v8a8 8 0 0 0 16 0v-8h16v8a8 8 0 0 0 16 0v-8h16v8a8 8 0 0 0 16 0v-8h16v8a8 8 0 0 0 16 0v-8h8a8 8 0 0 0 0-16z" fill="#000000" data-original="#000000" class=""></path></g></svg>